<?xml version="1.0" encoding="utf-8"?>
<svg version="1.1" id="Calque_1" xmlns="http://www.w3.org/2000/svg" xmlns:xlink="http://www.w3.org/1999/xlink" x="0px" y="0px" width="226.771px" height="50.101px" viewBox="0 0 226.771 50.101" enable-background="new 0 0 226.771 50.101" xml:space="preserve">
<g>
<path fill="#F0BD40" d="M71.222,0.006c-2.782,0-5.23,1.835-6.011,4.506l-6.685,22.876L45.604,3.302C44.519,1.277,42.41,0.01,40.112,0c-0.009,0-0.018,0-0.026,0c-2.288,0-4.395,1.248-5.494,3.256l-13.351,24.4L13.063,0.23L0,0.218l13.524,45.408c0.721,2.422,2.828,4.174,5.342,4.44c2.512,0.265,4.94-1.005,6.153-3.222l15.012-27.436l14.693,27.39c1.099,2.048,3.229,3.303,5.518,3.302c0.216,0,0.434-0.011,0.652-0.033c2.529-0.265,4.647-2.031,5.36-4.473l9.662-33.063h16.546V0.006H71.222z"/>
<path fill="#4D4D4D" d="M121.145,36.017H92.451l0.297-20.131L80.225,15.7l-0.392,26.486c-0.024,1.677,0.624,3.293,1.801,4.488c1.178,1.193,2.784,1.867,4.461,1.867h31.322L121.145,36.017z"/>
<g>
<path fill="#4D4D4D" d="M135.591,47.872c-0.365,0.43-0.727,0.645-1.083,0.645c-0.439,0-0.846-0.541-1.22-1.621h-10.291c-0.645,0.645-0.993,0.992-1.046,1.045c-0.452,0.384-0.836,0.576-1.151,0.576c-0.261,0-0.471-0.125-0.63-0.375c-0.16-0.249-0.207-0.527-0.142-0.838c0.077-0.36,0.327-0.764,0.752-1.211c0.004-0.018,0.351-0.361,1.042-1.031c2.002-1.994,5.024-4.949,9.068-8.869c0.226-0.223,0.483-0.334,0.771-0.334c0.274,0,0.487,0.111,0.639,0.335s0.292,0.542,0.425,0.954c0.119,0.344,0.238,0.688,0.356,1.031c1.004,2.769,1.986,5.57,2.948,8.407c0.035,0.154,0.034,0.317-0.002,0.489C135.97,47.349,135.824,47.615,135.591,47.872z M130.591,39.435l-4.685,4.631h6.365L130.591,39.435z"/>
<path fill="#4D4D4D" d="M153.906,47.307c-0.452,0.772-0.938,1.157-1.459,1.157c-0.302,0-0.574-0.119-0.817-0.359c-0.244-0.239-0.47-0.479-0.68-0.719c-0.86-0.787-2.308-2.131-4.343-4.032l-3.772-3.622l-2.516,7.602c-0.366,0.754-0.865,1.131-1.497,1.131c-0.577,0-0.861-0.377-0.852-1.132l3.445-10.496c0.481-0.651,0.947-0.978,1.4-0.978c0.273,0,0.558,0.146,0.853,0.438c0.223,0.241,0.451,0.489,0.684,0.747c1.181,0.895,2.551,2.125,4.11,3.689c1.299,1.308,2.603,2.623,3.911,3.947l2.514-7.613c0.376-0.738,0.874-1.106,1.491-1.106c0.576,0,0.867,0.377,0.871,1.132L153.906,47.307z"/>
<path fill="#4D4D4D" d="M174.566,38.22c-0.325,0.363-0.625,0.545-0.899,0.545h-10.224c-0.041,0-0.228,0.068-0.559,0.205c-0.331,0.136-0.535,0.221-0.61,0.255c-1.363,0.852-2.211,2.062-2.544,3.627c-0.318,1.499,0.132,2.452,1.352,2.86h8.908l0.69-2.084h-8.191c-0.261,0-0.45-0.172-0.569-0.516c-0.119-0.342-0.125-0.668-0.019-0.977c0.103-0.292,0.298-0.579,0.585-0.862c0.286-0.282,0.546-0.425,0.779-0.425h9.446c0.273,0,0.493,0.159,0.66,0.477c0.165,0.317,0.192,0.639,0.083,0.965c-0.207,0.84-0.418,1.672-0.634,2.495c-0.516,1.716-1.06,2.822-1.632,3.319c-0.322,0.291-0.614,0.438-0.875,0.438h-10.209c-0.123,0-0.403-0.104-0.84-0.309c-0.437-0.207-0.707-0.352-0.813-0.438c-1.173-1.133-1.553-2.668-1.141-4.605c0.307-1.441,1.024-2.882,2.153-4.322c0.205-0.258,0.716-0.755,1.531-1.492c0.357-0.325,0.89-0.647,1.595-0.965s1.25-0.477,1.635-0.477h10.146c0.302,0,0.521,0.161,0.659,0.48c0.139,0.32,0.149,0.654,0.034,1C174.991,37.64,174.825,37.908,174.566,38.22z"/>
<path fill="#4D4D4D" d="M189.31,47.872c-0.365,0.43-0.727,0.645-1.083,0.645c-0.439,0-0.846-0.541-1.22-1.621h-10.291c-0.645,0.645-0.993,0.992-1.046,1.045c-0.452,0.384-0.836,0.576-1.151,0.576c-0.261,0-0.471-0.125-0.63-0.375c-0.16-0.249-0.207-0.527-0.142-0.838c0.077-0.36,0.327-0.764,0.752-1.211c0.004-0.018,0.352-0.361,1.042-1.031c2.002-1.994,5.024-4.949,9.069-8.869c0.226-0.223,0.482-0.334,0.771-0.334c0.274,0,0.487,0.111,0.639,0.335s0.293,0.542,0.425,0.954c0.119,0.344,0.238,0.688,0.357,1.031c1.003,2.769,1.985,5.57,2.947,8.407c0.035,0.154,0.034,0.317-0.002,0.489C189.688,47.349,189.543,47.615,189.31,47.872z M184.31,39.435l-4.685,4.631h6.365L184.31,39.435z"/>
<path fill="#4D4D4D" d="M208.32,38.22c-0.325,0.363-0.624,0.545-0.898,0.545h-10.224c-0.042,0-0.229,0.068-0.56,0.205c-0.331,0.136-0.534,0.221-0.61,0.255c-1.362,0.852-2.211,2.062-2.544,3.627c-0.318,1.499,0.133,2.452,1.352,2.86h8.908l0.69-2.084h-8.19c-0.261,0-0.451-0.172-0.57-0.516c-0.119-0.342-0.125-0.668-0.019-0.977c0.104-0.292,0.298-0.579,0.585-0.862c0.286-0.282,0.547-0.425,0.779-0.425h9.446c0.274,0,0.494,0.159,0.66,0.477c0.165,0.317,0.193,0.639,0.083,0.965c-0.207,0.84-0.417,1.672-0.633,2.495c-0.517,1.716-1.061,2.822-1.632,3.319c-0.323,0.291-0.615,0.438-0.876,0.438H193.86c-0.124,0-0.403-0.104-0.84-0.309c-0.437-0.207-0.708-0.352-0.813-0.438c-1.173-1.133-1.554-2.668-1.142-4.605c0.307-1.441,1.024-2.882,2.153-4.322c0.206-0.258,0.717-0.755,1.532-1.492c0.357-0.325,0.889-0.647,1.595-0.965c0.705-0.317,1.25-0.477,1.634-0.477h10.146c0.302,0,0.522,0.161,0.66,0.48c0.138,0.32,0.149,0.654,0.034,1C208.746,37.64,208.579,37.908,208.32,38.22z"/>
<path fill="#4D4D4D" d="M225.434,38.765h-12.732l-0.698,2.084h12.616c0.452,0.326,0.623,0.746,0.515,1.262c-0.132,0.617-0.562,1.123-1.291,1.518h-12.765l-0.707,2.084h12.659c0.424,0.328,0.578,0.762,0.465,1.297c-0.129,0.607-0.554,1.117-1.272,1.533h-13.872c-0.275,0-0.494-0.163-0.658-0.488c-0.164-0.326-0.198-0.652-0.101-0.979l3.247-9.854c0.106-0.309,0.333-0.601,0.68-0.875c0.347-0.273,0.657-0.412,0.932-0.412h13.625c0.585,0.156,0.801,0.59,0.65,1.299S226.144,38.454,225.434,38.765z"/>
</g>
</g>
</svg>
